<?xml version="1.0" encoding="UTF-8"?>
<svg width="222px" height="63px" viewBox="0 0 222 63" version="1.1" xmlns="http://www.w3.org/2000/svg" xmlns:xlink="http://www.w3.org/1999/xlink">
    <!-- Generator: Sketch 46.2 (44496) - http://www.bohemiancoding.com/sketch -->
    <title>On Dark Background</title>
    <desc>Created with Sketch.</desc>
    <defs></defs>
    <g id="Page-1" stroke="none" stroke-width="1" fill="none" fill-rule="evenodd">
        <g id="Acme-Logo-#8" transform="translate(-139.000000, -341.000000)" fill="#FEFEFE">
            <g id="On-Dark-Background" transform="translate(139.000000, 341.000000)">
                <g id="Symbol">
                    <path d="M6.9856,49.1728 L4.4066,49.1728 C2.2696,49.1728 0.5366,47.4398 0.5366,45.3028 L0.5366,18.1368 C0.5366,15.9998 2.2696,14.2668 4.4066,14.2668 L6.5616,14.2668 C8.6986,14.2668 10.4316,15.9998 10.4316,18.1368 L10.4316,45.7268 C10.4316,47.6298 8.8886,49.1728 6.9856,49.1728" id="Fill-20"></path>
                    <path d="M61.3406,62.6287 L58.7616,62.6287 C56.6246,62.6287 54.8916,60.8957 54.8916,58.7587 L54.8916,4.6807 C54.8916,2.5437 56.6246,0.8107 58.7616,0.8107 L60.9166,0.8107 C63.0536,0.8107 64.7866,2.5437 64.7866,4.6807 L64.7866,59.1827 C64.7866,61.0857 63.2436,62.6287 61.3406,62.6287" id="Fill-22"></path>
                    <path d="M25.1039,62.6287 L22.5249,62.6287 C20.3879,62.6287 18.6549,60.8957 18.6549,58.7587 L18.6549,4.6807 C18.6549,2.5437 20.3879,0.8107 22.5249,0.8107 L24.6799,0.8107 C26.8169,0.8107 28.5499,2.5437 28.5499,4.6807 L28.5499,59.1827 C28.5499,61.0857 27.0069,62.6287 25.1039,62.6287" id="Fill-24"></path>
                    <path d="M79.459,49.1728 L76.88,49.1728 C74.743,49.1728 73.01,47.4398 73.01,45.3028 L73.01,18.1368 C73.01,15.9998 74.743,14.2668 76.88,14.2668 L79.035,14.2668 C81.172,14.2668 82.905,15.9998 82.905,18.1368 L82.905,45.7268 C82.905,47.6298 81.362,49.1728 79.459,49.1728" id="Fill-26"></path>
                    <path d="M43.2223,50.2675 L40.6433,50.2675 C38.5063,50.2675 36.7733,48.5345 36.7733,46.3975 L36.7733,20.0025 C36.7733,17.8645 38.5063,16.1325 40.6433,16.1325 L42.7983,16.1325 C44.9353,16.1325 46.6683,17.8645 46.6683,20.0025 L46.6683,46.8215 C46.6683,48.7245 45.1253,50.2675 43.2223,50.2675" id="Fill-28"></path>
                </g>
                <g id="Acme" transform="translate(115.000000, 22.000000)">
                    <path d="M11.5173,12.6716 L9.4783,8.2436 L9.4513,8.2436 L7.4383,12.6716 L11.5173,12.6716 Z M0.4873,18.4146 L8.8873,0.3536 C8.9683,0.1926 9.1563,0.0586 9.3433,0.0586 L9.6123,0.0586 C9.7993,0.0586 9.9873,0.1926 10.0683,0.3536 L18.4683,18.4146 C18.6293,18.7636 18.4143,19.1126 18.0123,19.1126 L15.0333,19.1126 C14.5503,19.1126 14.3353,18.9516 14.0933,18.4416 L13.1273,16.3216 L5.8283,16.3216 L4.8623,18.4686 C4.7283,18.7906 4.4323,19.1126 3.8963,19.1126 L0.9433,19.1126 C0.5413,19.1126 0.3263,18.7636 0.4873,18.4146 L0.4873,18.4146 Z" id="Fill-30"></path>
                    <path d="M39.5611,0.0586 C42.2451,0.0586 44.2311,0.8906 46.0561,2.5546 C46.2971,2.7686 46.2971,3.0906 46.0821,3.3056 L43.9891,5.4796 C43.8011,5.6676 43.5061,5.6676 43.3181,5.4796 C42.3251,4.5936 41.0101,4.1106 39.6951,4.1106 C36.6631,4.1106 34.4351,6.6336 34.4351,9.6396 C34.4351,12.6176 36.6901,15.0866 39.7221,15.0866 C40.9831,15.0866 42.3521,14.6306 43.3181,13.7986 C43.5061,13.6376 43.8551,13.6376 44.0161,13.8256 L46.1091,16.0526 C46.2971,16.2406 46.2701,16.5896 46.0821,16.7776 C44.2571,18.5486 41.9501,19.3806 39.5611,19.3806 C34.1941,19.3806 29.8731,15.1136 29.8731,9.7466 C29.8731,4.3796 34.1941,0.0586 39.5611,0.0586" id="Fill-32"></path>
                    <path d="M61.8887,0.488 C61.9157,0.246 62.1567,0.059 62.3717,0.059 L62.8007,0.059 C62.9357,0.059 63.1767,0.166 63.2577,0.327 L69.4837,11.92 L69.5367,11.92 L75.7627,0.327 C75.8437,0.166 76.0847,0.059 76.2197,0.059 L76.6487,0.059 C76.8637,0.059 77.1047,0.246 77.1317,0.488 L80.1647,18.522 C80.2177,18.871 79.9767,19.112 79.6547,19.112 L76.4877,19.112 C76.2457,19.112 76.0047,18.898 75.9777,18.683 L74.7697,10.391 L74.7167,10.391 L70.2077,19.086 C70.1277,19.247 69.8857,19.381 69.7517,19.381 L69.2687,19.381 C69.1077,19.381 68.8927,19.247 68.8127,19.086 L64.2777,10.391 L64.2237,10.391 L63.0427,18.683 C63.0157,18.898 62.8007,19.112 62.5327,19.112 L59.3657,19.112 C59.0437,19.112 58.8027,18.871 58.8567,18.522 L61.8887,0.488 Z" id="Fill-34"></path>
                    <path d="M94.3335,0.8369 C94.3335,0.5689 94.5485,0.3269 94.8435,0.3269 L105.9535,0.3269 C106.2485,0.3269 106.4635,0.5689 106.4635,0.8369 L106.4635,3.7619 C106.4635,4.0299 106.2485,4.2719 105.9535,4.2719 L98.5195,4.2719 L98.5195,7.5999 L104.6385,7.5999 C104.9075,7.5999 105.1485,7.8409 105.1485,8.1099 L105.1485,11.0349 C105.1485,11.3299 104.9075,11.5449 104.6385,11.5449 L98.5195,11.5449 L98.5195,15.1679 L105.9535,15.1679 C106.2485,15.1679 106.4635,15.4089 106.4635,15.6769 L106.4635,18.6029 C106.4635,18.8709 106.2485,19.1129 105.9535,19.1129 L94.8435,19.1129 C94.5485,19.1129 94.3335,18.8709 94.3335,18.6029 L94.3335,0.8369 Z" id="Fill-36"></path>
                </g>
            </g>
        </g>
    </g>
</svg>