<?xml version="1.0" encoding="UTF-8"?>
<svg width="222px" height="62px" viewBox="0 0 222 62" version="1.1" xmlns="http://www.w3.org/2000/svg" xmlns:xlink="http://www.w3.org/1999/xlink">
    <!-- Generator: Sketch 46.2 (44496) - http://www.bohemiancoding.com/sketch -->
    <title>On White Background</title>
    <desc>Created with Sketch.</desc>
    <defs></defs>
    <g id="Page-1" stroke="none" stroke-width="1" fill="none" fill-rule="evenodd">
        <g id="Acme-Logo-#8" transform="translate(-138.000000, -87.000000)" fill="#694A87">
            <g id="On-White-Background" transform="translate(138.000000, 87.000000)">
                <g id="Symbol">
                    <path d="M7.2655,48.3625 L4.6865,48.3625 C2.5495,48.3625 0.8165,46.6295 0.8165,44.4925 L0.8165,17.3265 C0.8165,15.1895 2.5495,13.4565 4.6865,13.4565 L6.8415,13.4565 C8.9785,13.4565 10.7115,15.1895 10.7115,17.3265 L10.7115,44.9165 C10.7115,46.8195 9.1685,48.3625 7.2655,48.3625" id="Fill-2"></path>
                    <path d="M61.6205,61.8185 L59.0415,61.8185 C56.9045,61.8185 55.1715,60.0855 55.1715,57.9485 L55.1715,3.8705 C55.1715,1.7335 56.9045,0.0005 59.0415,0.0005 L61.1965,0.0005 C63.3335,0.0005 65.0665,1.7335 65.0665,3.8705 L65.0665,58.3725 C65.0665,60.2755 63.5235,61.8185 61.6205,61.8185" id="Fill-4"></path>
                    <path d="M25.3838,61.8185 L22.8048,61.8185 C20.6678,61.8185 18.9348,60.0855 18.9348,57.9485 L18.9348,3.8705 C18.9348,1.7335 20.6678,0.0005 22.8048,0.0005 L24.9598,0.0005 C27.0968,0.0005 28.8298,1.7335 28.8298,3.8705 L28.8298,58.3725 C28.8298,60.2755 27.2868,61.8185 25.3838,61.8185" id="Fill-6"></path>
                    <path d="M79.7388,48.3625 L77.1598,48.3625 C75.0228,48.3625 73.2898,46.6295 73.2898,44.4925 L73.2898,17.3265 C73.2898,15.1895 75.0228,13.4565 77.1598,13.4565 L79.3148,13.4565 C81.4518,13.4565 83.1848,15.1895 83.1848,17.3265 L83.1848,44.9165 C83.1848,46.8195 81.6418,48.3625 79.7388,48.3625" id="Fill-8"></path>
                    <path d="M43.5021,49.4572 L40.9231,49.4572 C38.7861,49.4572 37.0531,47.7242 37.0531,45.5872 L37.0531,19.1922 C37.0531,17.0542 38.7861,15.3222 40.9231,15.3222 L43.0781,15.3222 C45.2151,15.3222 46.9481,17.0542 46.9481,19.1922 L46.9481,46.0112 C46.9481,47.9142 45.4051,49.4572 43.5021,49.4572" id="Fill-10"></path>
                </g>
                <g id="Acme" transform="translate(116.000000, 21.000000)">
                    <path d="M11.0295267,12.5772541 L9.00049755,8.1618033 L8.97362959,8.1618033 L6.97047333,12.5772541 L11.0295267,12.5772541 Z M0.0534643096,18.3039782 L8.4123876,0.294163955 C8.4929915,0.133620237 8.68007216,0 8.86615772,0 L9.13384228,0 C9.31992784,0 9.5070085,0.133620237 9.5876124,0.294163955 L17.9465357,18.3039782 C18.1067484,18.6519891 17.8927998,19 17.4927656,19 L14.5283331,19 C14.047695,19 13.8337464,18.8394563 13.5929298,18.3309016 L12.6316536,16.2169098 L5.36834637,16.2169098 L4.40707019,18.3578251 C4.27372546,18.6789126 3.97917292,19 3.44579401,19 L0.507234431,19 C0.107200245,19 -0.106748387,18.6519891 0.0534643096,18.3039782 L0.0534643096,18.3039782 Z" id="Fill-12"></path>
                    <path d="M38.4706839,0 C41.0944778,0 43.0359289,0.818134769 44.8199915,2.45440431 C45.0555855,2.66582134 45.0555855,2.9814719 44.8454082,3.19288893 L42.7993573,5.33065935 C42.6155744,5.51552634 42.3271917,5.51552634 42.1434088,5.33065935 C41.1726833,4.45942449 39.8871807,3.98447366 38.6016781,3.98447366 C35.6376903,3.98447366 33.4596676,6.46542801 33.4596676,9.4213332 C33.4596676,12.349705 35.6640846,14.7775593 38.6280724,14.7775593 C39.8607863,14.7775593 41.1990776,14.3291585 42.1434088,13.5110237 C42.3271917,13.3527068 42.6683631,13.3527068 42.8257517,13.5375738 L44.8718026,15.7274609 C45.0555855,15.9123279 45.0291911,16.2555119 44.8454082,16.4403788 C43.0613457,18.1818652 40.8060951,19 38.4706839,19 C33.2240736,19 29,14.8041093 29,9.52655005 C29,4.24899079 33.2240736,0 38.4706839,0" id="Fill-14"></path>
                    <path d="M60.9935546,0.42185074 C61.0201457,0.183883656 61.257496,0 61.46924,0 L61.8917432,0 C62.0246987,0 62.262049,0.105216851 62.3418223,0.263533796 L68.4735352,11.6633371 L68.5257325,11.6633371 L74.6574454,0.263533796 C74.7372187,0.105216851 74.974569,0 75.1075245,0 L75.5300277,0 C75.7417717,0 75.979122,0.183883656 76.0057131,0.42185074 L78.992781,18.1553152 C79.0449784,18.4984991 78.8076281,18.7354829 78.4905045,18.7354829 L75.3714659,18.7354829 C75.1331308,18.7354829 74.8957805,18.5250492 74.8691894,18.3136321 L73.6794834,10.1598178 L73.6272861,10.1598178 L69.1865708,18.7099162 C69.1077824,18.8682331 68.8694472,19 68.7374765,19 L68.2617911,19 C68.1032293,19 67.8914853,18.8682331 67.8126968,18.7099162 L63.3463753,10.1598178 L63.2931931,10.1598178 L62.1300783,18.3136321 C62.1034872,18.5250492 61.8917432,18.7354829 61.6278018,18.7354829 L58.5087632,18.7354829 C58.1916396,18.7354829 57.9542893,18.4984991 58.0074715,18.1553152 L60.9935546,0.42185074 Z" id="Fill-16"></path>
                    <path d="M94,1.51580965 C94,1.24475673 94.2126958,1 94.5045342,1 L105.495466,1 C105.787304,1 106,1.24475673 106,1.51580965 L106,4.47412967 C106,4.74518258 105.787304,4.98993932 105.495466,4.98993932 L98.1411377,4.98993932 L98.1411377,8.3558501 L104.194559,8.3558501 C104.460676,8.3558501 104.699093,8.59959544 104.699093,8.87165975 L104.699093,11.8299798 C104.699093,12.1283403 104.460676,12.3457894 104.194559,12.3457894 L98.1411377,12.3457894 L98.1411377,16.0100607 L105.495466,16.0100607 C105.787304,16.0100607 106,16.253806 106,16.5248589 L106,19.4841904 C106,19.7552433 105.787304,20 105.495466,20 L94.5045342,20 C94.2126958,20 94,19.7552433 94,19.4841904 L94,1.51580965 Z" id="Fill-18"></path>
                </g>
            </g>
        </g>
    </g>
</svg>